Coordinates
version=1
nRows=11
nColumns=63
inDegrees=yes

Units are S.I. units (second, meters, Newtons, ...)
If the header above contains a line with 'inDegrees', this indicates whether rotational values are in degrees (yes) or radians (no).

endheader
time	pelvis_tilt	pelvis_list	pelvis_rotation	pelvis_tx	pelvis_ty	pelvis_tz	hip_flexion_r	hip_adduction_r	hip_rotation_r	knee_angle_r	knee_angle_r_beta	ankle_angle_r	subtalar_angle_r	mtp_angle_r	hip_flexion_l	hip_adduction_l	hip_rotation_l	knee_angle_l	knee_angle_l_beta	ankle_angle_l	subtalar_angle_l	mtp_angle_l	L5_S1_Flex_Ext	L5_S1_Lat_Bending	L5_S1_axial_rotation	L4_L5_Flex_Ext	L4_L5_Lat_Bending	L4_L5_axial_rotation	L3_L4_Flex_Ext	L3_L4_Lat_Bending	L3_L4_axial_rotation	L2_L3_Flex_Ext	L2_L3_Lat_Bending	L2_L3_axial_rotation	L1_L2_Flex_Ext	L1_L2_Lat_Bending	L1_L2_axial_rotation	L1_T12_Flex_Ext	L1_T12_Lat_Bending	L1_T12_axial_rotation	Abs_r3	Abs_r2	Abs_r1	Abs_t1	Abs_t2	neck_flexion	neck_bending	neck_rotation	arm_flex_r	arm_add_r	arm_rot_r	elbow_flex_r	pro_sup_r	wrist_flex_r	wrist_dev_r	arm_flex_l	arm_add_l	arm_rot_l	elbow_flex_l	pro_sup_l	wrist_flex_l	wrist_dev_l
      5.31666667	     -0.84499204	      2.29411446	     99.57288442	      0.14168822	      0.98103447	      0.44662131	    -10.61419286	      0.00683675	    -30.30160613	     11.66691461	      0.20362607	     23.44001330	     -2.14286332	      0.00000000	     -7.40586280	     -2.58086789	      1.36860912	      9.52017892	      0.16615847	     25.35844767	      7.16747435	      0.00000000	      0.14028416	      0.50620658	     -0.62103455	      0.26052171	      0.67325475	     -0.65984921	      0.23047284	      1.23079068	     -0.65984921	      0.16033076	      1.23079068	     -0.54340523	      0.13026787	      1.03225646	     -0.50459057	      0.08015837	      0.78411400	     -0.46577591	      1.00203571	      5.72631010	     -3.45400787	      0.00000000	      0.00000000	      8.85258031	     -2.44461736	      4.30424225	     45.78142263	     -3.17942578	     50.11952034	     76.05669013	     88.88695460	    -20.21289002	    -16.87073263	     24.52846301	    -21.22734277	     -5.28433422	     63.79121972	     58.78312121	     -1.27218457	     -1.86313703
      5.33333333	     -0.56782927	      2.18925274	     99.36844252	      0.14177606	      0.98084969	      0.44681427	    -10.38773890	      0.19531660	    -30.11418458	     11.77505512	      0.20551348	     23.10760815	     -2.11719490	      0.00000000	     -7.19432902	     -2.81562644	      0.97643815	      9.77419262	      0.17059184	     24.99100011	      6.58464393	      0.00000000	      0.13693640	      0.53174342	     -0.64164938	      0.25430460	      0.70721875	     -0.68175247	      0.22497282	      1.29288096	     -0.68175247	      0.15650462	      1.29288096	     -0.56144321	      0.12715914	      1.08433119	     -0.52134012	      0.07824546	      0.82367056	     -0.48123703	      0.97812304	      6.01518797	     -3.56866135	      0.00000000	      0.00000000	      9.28293249	     -2.44538160	      4.24352373	     45.05032370	     -3.27669917	     49.18243825	     77.28807912	     88.85274031	    -19.64976623	    -15.65903788	     23.65935118	    -22.11917206	     -4.81511321	     65.41121593	     58.22595164	     -1.74641972	     -1.83050824
      5.35000000	     -0.43829052	      1.97457012	     99.76948253	      0.14153783	      0.98054387	      0.44714156	    -10.12500991	      0.34444326	    -30.67990604	     11.82871933	      0.20645010	     22.91006477	     -1.98781810	      0.00000000	     -6.71781072	     -2.99521194	      0.98287144	     10.15940778	      0.17731512	     24.78689318	      6.56292344	      0.00000000	      0.15508812	      0.52658703	     -0.79550887	      0.28801416	      0.70036075	     -0.84522817	      0.25479428	      1.28034370	     -0.84522817	      0.17725022	      1.28034370	     -0.69607026	      0.14401483	      1.07381627	     -0.64635095	      0.08861735	      0.81568330	     -0.59663165	      1.10777897	      5.95685777	     -4.42438166	      0.00000000	      0.00000000	      9.59179042	     -2.34171355	      3.68512747	     44.24955487	     -3.25777145	     48.23929140	     78.13935450	     88.78373886	    -18.59705656	    -15.43374801	     22.52051720	    -23.64301929	     -3.29791028	     67.63461124	     60.46269782	     -6.95638617	     -2.84249427
      5.36666667	     -0.17238517	      1.78734978	     99.62724228	      0.14163274	      0.98031449	      0.44764178	     -9.77979697	      0.48129754	    -30.88763082	     11.96084924	      0.20875620	     22.71613606	     -1.53976734	      0.00000000	     -6.40829174	     -3.18807914	      0.76858498	     10.28246835	      0.17946293	     24.59557302	      6.17911073	      0.00000000	      0.16310358	      0.54304310	     -0.82210799	      0.30289965	      0.72224732	     -0.87348974	      0.26796287	      1.32035499	     -0.87348974	      0.18641108	      1.32035499	     -0.71934449	      0.15145798	      1.10737349	     -0.66796274	      0.09319738	      0.84117376	     -0.61658099	      1.16503254	      6.14301215	     -4.57231801	      0.00000000	      0.00000000	     10.05953370	     -2.50971933	      2.57499372	     43.27325738	     -3.67270752	     47.08042932	     79.41067912	     88.75346010	    -16.70078198	    -14.69672212	     21.58021658	    -24.02396663	     -3.55350059	     69.36252372	     64.76454599	     -9.16977276	     -1.14544760
      5.38333333	      0.06893920	      1.60524304	     99.54360046	      0.14154980	      0.98008835	      0.44805618	     -9.42930798	      0.60774059	    -30.96661194	     12.10759753	      0.21131744	     22.47975723	     -1.42587306	      0.00000000	     -6.14836450	     -3.34700401	      0.80685406	     10.29280453	      0.17964333	     24.48574281	      5.83349826	      0.00000000	      0.16634177	      0.55547498	     -0.86854935	      0.30891331	      0.73878172	     -0.92283368	      0.27328290	      1.35058187	     -0.92283368	      0.19011201	      1.35058187	     -0.75998068	      0.15446497	      1.13272458	     -0.70569634	      0.09504769	      0.86043075	     -0.65141201	      1.18816266	      6.28364408	     -4.83061090	      0.00000000	      0.00000000	     10.78060670	     -3.08885411	      0.42734376	     42.23112659	     -4.19606268	     46.28657143	     80.68442275	     88.72760242	    -15.09808169	    -14.69433814	     20.55608918	    -24.12316799	     -4.12460013	     70.99648354	     67.75615908	     -9.87426922	      1.03371492
      5.40000000	      0.31657581	      1.35860743	     99.25865128	      0.14168137	      0.97979036	      0.44836835	     -8.95729439	      0.69489117	    -30.68611591	     12.28905073	      0.21448440	     22.40120914	     -1.43145471	      0.00000000	     -5.85951970	     -3.47071582	      0.72671603	     10.28490931	      0.17950553	     24.46603839	      5.36547422	      0.00000000	      0.17023868	      0.56813771	     -0.88483930	      0.31615024	      0.75562315	     -0.94014176	      0.27968512	      1.38137003	     -0.94014176	      0.19456578	      1.38137003	     -0.77423439	      0.15808363	      1.15854642	     -0.71893193	      0.09727438	      0.88004531	     -0.66362948	      1.21599783	      6.42688740	     -4.92121076	      0.00000000	      0.00000000	     11.83734424	     -3.72829512	     -2.35665983	     40.92179759	     -4.80870693	     45.63295386	     82.26119815	     88.71698551	    -13.47556312	    -14.71051364	     19.49916745	    -24.14197286	     -4.52710653	     72.43329270	     69.67389219	     -9.65875117	      3.02891898
      5.41666667	      0.57025332	      1.14017676	     98.86687534	      0.14188858	      0.97952838	      0.44855603	     -8.46297567	      0.79244861	    -29.98505721	     12.46360519	      0.21753095	     22.47988524	     -1.87013992	      0.00000000	     -5.63718791	     -3.59330272	      0.64599175	     10.26885341	      0.17922530	     24.48246243	      4.79871623	      0.00000000	      0.15683982	      0.58022511	     -0.85117227	      0.29126724	      0.77169940	     -0.90437053	      0.25767215	      1.41075934	     -0.90437053	      0.17925224	      1.41075934	     -0.74477573	      0.14564146	      1.18319505	     -0.69157747	      0.08961828	      0.89876870	     -0.63837920	      1.12029118	      6.56362250	     -4.73396480	      0.00000000	      0.00000000	     13.33163873	     -4.17075386	     -5.75408823	     39.12175049	     -5.54448099	     44.51285061	     84.27880635	     88.69425212	    -10.85105210	    -14.26434952	     18.51077658	    -24.05839036	     -4.47380137	     73.65661737	     70.71961903	     -8.72617417	      4.71541828
      5.43333333	      0.84421395	      0.84332050	     98.52562087	      0.14193156	      0.97912092	      0.44877995	     -7.84139099	      0.89650062	    -29.23860692	     12.65273444	      0.22083188	     22.83859359	     -2.39199896	      0.00000000	     -5.35584925	     -3.74055399	      0.48010468	     10.19925394	      0.17801056	     24.49974030	      4.41399047	      0.00000000	      0.14048812	      0.59341362	     -0.85875849	      0.26090049	      0.78924011	     -0.91243089	      0.23080793	      1.44282587	     -0.91243089	      0.16056387	      1.44282587	     -0.75141368	      0.13045727	      1.21008905	     -0.69774127	      0.08027491	      0.91919770	     -0.64406887	      1.00349259	      6.71281354	     -4.77615709	      0.00000000	      0.00000000	     15.17880457	     -4.52451568	     -9.50140929	     37.17172145	     -6.15362998	     43.58957349	     86.35549949	     88.63264270	     -8.72803548	    -13.71513920	     17.05279551	    -23.95860079	     -4.35312661	     74.86277338	     70.42021921	     -7.69184824	      4.86022653
      5.45000000	      1.02656844	      0.54495812	     98.11777562	      0.14220604	      0.97855332	      0.44934399	     -7.16537008	      0.98471000	    -27.66054561	     12.78950154	      0.22321891	     23.27098076	     -3.98809957	      0.00000000	     -5.08867234	     -3.78793987	      0.39342016	     10.09709376	      0.17622753	     24.47384611	      3.87167718	      0.00000000	      0.10562859	      0.59420848	     -0.79256258	      0.19616286	      0.79029728	     -0.84209774	      0.17353721	      1.44475850	     -0.84209774	      0.12072292	      1.44475850	     -0.69349225	      0.09808671	      1.21170993	     -0.64395709	      0.06035618	      0.92042894	     -0.59442193	      0.75449446	      6.72180517	     -4.40799528	      0.00000000	      0.00000000	     17.39292146	     -4.36945032	    -13.15155920	     34.56796582	     -6.71918994	     41.41295786	     88.91389862	     88.61009247	     -4.58910381	    -11.15501073	     15.83715256	    -23.93901819	     -3.35124905	     75.50455684	     70.52606661	     -6.34998423	      3.66411226
      5.46666667	      1.17767001	      0.12191561	     97.88703388	      0.14240388	      0.97755719	      0.45027902	     -6.41483506	      0.98387631	    -27.19536173	     12.87991976	      0.22479701	     24.21500361	     -4.34259277	      0.00000000	     -4.62598576	     -3.83021913	      0.33265860	     10.03870804	      0.17520851	     24.62696883	      3.71775753	      0.00000000	      0.07116289	      0.58972324	     -0.87017202	      0.13215660	      0.78433191	     -0.92455777	      0.11691351	      1.43385309	     -0.92455777	      0.08133206	      1.43385309	     -0.76140052	      0.06608186	      1.20256364	     -0.70701477	      0.04066247	      0.91348130	     -0.65262902	      0.50830939	      6.67106726	     -4.83963573	      0.00000000	      0.00000000	     19.89776675	     -3.63783224	    -15.86296781	     32.63543149	     -7.16880670	     40.73974874	     90.73234694	     88.55837280	     -4.40382167	    -10.19806870	     13.54567613	    -24.08704748	     -3.24237653	     76.65950370	     71.10135136	     -5.41078504	      1.75702623
      5.48333333	      0.99931399	     -0.30542022	     97.53442938	      0.14282860	      0.97647989	      0.45175563	     -5.59347558	      0.69045817	    -25.78717077	     13.07793582	      0.22825304	     25.16976079	     -5.92547701	      0.00000000	     -4.15526338	     -3.49821770	      0.39585145	     10.00919986	      0.17469349	     24.73075943	      3.39290418	      0.00000000	      0.03171083	      0.53660098	     -0.75452120	      0.05889018	      0.71367930	     -0.80167877	      0.05209772	      1.30469161	     -0.80167877	      0.03624231	      1.30469161	     -0.66020605	      0.02944668	      1.09423671	     -0.61304847	      0.01811957	      0.83119491	     -0.56589090	      0.22650728	      6.07013756	     -4.19642054	      0.00000000	      0.00000000	     21.35321528	     -3.56058464	    -20.52658613	     30.01139877	     -8.27713303	     38.22848394	     93.74327126	     88.57181078	     -3.00891558	     -5.01121248	     12.30351319	    -24.00390765	     -2.07300211	     76.34149712	     76.42146641	     -3.42392337	     -2.00367209
